<mxfile host="Electron" modified="2024-05-06T02:41:35.605Z" agent="Mozilla/5.0 (Windows NT 10.0; Win64; x64) AppleWebKit/537.36 (KHTML, like Gecko) draw.io/24.2.5 Chrome/120.0.6099.109 Electron/28.1.0 Safari/537.36" etag="hR0Nm-UYfVxNmpNxEkaq" version="24.2.5" type="device">
  <diagram name="Page-1" id="GmKOVnu1HUBhw32VolcF">
    <mxGraphModel dx="1395" dy="737" grid="1" gridSize="10" guides="1" tooltips="1" connect="1" arrows="1" fold="1" page="1" pageScale="1" pageWidth="827" pageHeight="1169" math="0" shadow="0">
      <root>
        <mxCell id="0" />
        <mxCell id="1" parent="0" />
        <mxCell id="gjoIWEntqids-umup4c_-11" value="Shape editor" style="shape=note2;boundedLbl=1;whiteSpace=wrap;html=1;size=25;verticalAlign=top;align=center;" parent="1" vertex="1">
          <mxGeometry x="164" y="40" width="640" height="1120" as="geometry" />
        </mxCell>
        <mxCell id="gjoIWEntqids-umup4c_-12" value="Create a simple shape" style="ellipse;whiteSpace=wrap;html=1;" parent="1" vertex="1">
          <mxGeometry x="224" y="480" width="140" height="70" as="geometry" />
        </mxCell>
        <mxCell id="gjoIWEntqids-umup4c_-13" value="Create a rectangle" style="ellipse;whiteSpace=wrap;html=1;" parent="1" vertex="1">
          <mxGeometry x="484" y="455" width="140" height="70" as="geometry" />
        </mxCell>
        <mxCell id="gjoIWEntqids-umup4c_-16" value="Move&amp;nbsp;a shape" style="ellipse;whiteSpace=wrap;html=1;" parent="1" vertex="1">
          <mxGeometry x="394" y="680" width="140" height="70" as="geometry" />
        </mxCell>
        <mxCell id="gjoIWEntqids-umup4c_-17" value="Resize&amp;nbsp;a shape" style="ellipse;whiteSpace=wrap;html=1;" parent="1" vertex="1">
          <mxGeometry x="394" y="770" width="140" height="70" as="geometry" />
        </mxCell>
        <mxCell id="gjoIWEntqids-umup4c_-18" value="Save a file" style="ellipse;whiteSpace=wrap;html=1;" parent="1" vertex="1">
          <mxGeometry x="464" y="1080" width="140" height="70" as="geometry" />
        </mxCell>
        <mxCell id="gjoIWEntqids-umup4c_-19" value="Restore a file" style="ellipse;whiteSpace=wrap;html=1;" parent="1" vertex="1">
          <mxGeometry x="324" y="385" width="140" height="70" as="geometry" />
        </mxCell>
        <mxCell id="gjoIWEntqids-umup4c_-20" value="User" style="shape=umlActor;verticalLabelPosition=bottom;verticalAlign=top;html=1;" parent="1" vertex="1">
          <mxGeometry x="24" y="460" width="30" height="60" as="geometry" />
        </mxCell>
        <mxCell id="gjoIWEntqids-umup4c_-25" value="" style="endArrow=none;startArrow=none;endFill=0;startFill=0;endSize=8;html=1;verticalAlign=bottom;labelBackgroundColor=none;strokeWidth=3;rounded=0;" parent="1" source="gjoIWEntqids-umup4c_-20" target="gjoIWEntqids-umup4c_-12" edge="1">
          <mxGeometry width="160" relative="1" as="geometry">
            <mxPoint x="94" y="480" as="sourcePoint" />
            <mxPoint x="244" y="480" as="targetPoint" />
          </mxGeometry>
        </mxCell>
        <mxCell id="gjoIWEntqids-umup4c_-29" value="" style="endArrow=none;startArrow=none;endFill=0;startFill=0;endSize=8;html=1;verticalAlign=bottom;labelBackgroundColor=none;strokeWidth=3;rounded=0;" parent="1" source="gjoIWEntqids-umup4c_-20" target="gjoIWEntqids-umup4c_-16" edge="1">
          <mxGeometry width="160" relative="1" as="geometry">
            <mxPoint x="64" y="489" as="sourcePoint" />
            <mxPoint x="275" y="334" as="targetPoint" />
          </mxGeometry>
        </mxCell>
        <mxCell id="gjoIWEntqids-umup4c_-30" value="" style="endArrow=none;startArrow=none;endFill=0;startFill=0;endSize=8;html=1;verticalAlign=bottom;labelBackgroundColor=none;strokeWidth=3;rounded=0;" parent="1" source="gjoIWEntqids-umup4c_-20" target="gjoIWEntqids-umup4c_-17" edge="1">
          <mxGeometry width="160" relative="1" as="geometry">
            <mxPoint x="64" y="497" as="sourcePoint" />
            <mxPoint x="278" y="457" as="targetPoint" />
          </mxGeometry>
        </mxCell>
        <mxCell id="gjoIWEntqids-umup4c_-31" value="" style="endArrow=none;startArrow=none;endFill=0;startFill=0;endSize=8;html=1;verticalAlign=bottom;labelBackgroundColor=none;strokeWidth=3;rounded=0;" parent="1" source="gjoIWEntqids-umup4c_-20" target="gjoIWEntqids-umup4c_-19" edge="1">
          <mxGeometry width="160" relative="1" as="geometry">
            <mxPoint x="64" y="503" as="sourcePoint" />
            <mxPoint x="278" y="543" as="targetPoint" />
          </mxGeometry>
        </mxCell>
        <mxCell id="gjoIWEntqids-umup4c_-32" value="" style="endArrow=none;startArrow=none;endFill=0;startFill=0;endSize=8;html=1;verticalAlign=bottom;labelBackgroundColor=none;strokeWidth=3;rounded=0;" parent="1" source="gjoIWEntqids-umup4c_-20" target="gjoIWEntqids-umup4c_-18" edge="1">
          <mxGeometry width="160" relative="1" as="geometry">
            <mxPoint x="64" y="513" as="sourcePoint" />
            <mxPoint x="268" y="685" as="targetPoint" />
            <Array as="points">
              <mxPoint x="134" y="1110" />
            </Array>
          </mxGeometry>
        </mxCell>
        <mxCell id="gjoIWEntqids-umup4c_-35" value="Create a complex&amp;nbsp;shape" style="ellipse;whiteSpace=wrap;html=1;" parent="1" vertex="1">
          <mxGeometry x="194" y="230" width="140" height="70" as="geometry" />
        </mxCell>
        <mxCell id="gjoIWEntqids-umup4c_-36" value="" style="endArrow=none;startArrow=none;endFill=0;startFill=0;endSize=8;html=1;verticalAlign=bottom;labelBackgroundColor=none;strokeWidth=3;rounded=0;" parent="1" source="gjoIWEntqids-umup4c_-20" target="gjoIWEntqids-umup4c_-35" edge="1">
          <mxGeometry width="160" relative="1" as="geometry">
            <mxPoint x="64" y="497" as="sourcePoint" />
            <mxPoint x="280" y="449" as="targetPoint" />
          </mxGeometry>
        </mxCell>
        <mxCell id="gjoIWEntqids-umup4c_-37" value="Create an intersection" style="ellipse;whiteSpace=wrap;html=1;" parent="1" vertex="1">
          <mxGeometry x="394" y="90" width="140" height="70" as="geometry" />
        </mxCell>
        <mxCell id="gjoIWEntqids-umup4c_-38" value="Create a union" style="ellipse;whiteSpace=wrap;html=1;" parent="1" vertex="1">
          <mxGeometry x="624" y="160" width="140" height="70" as="geometry" />
        </mxCell>
        <mxCell id="gjoIWEntqids-umup4c_-39" value="Create a difference" style="ellipse;whiteSpace=wrap;html=1;" parent="1" vertex="1">
          <mxGeometry x="614" y="80" width="140" height="70" as="geometry" />
        </mxCell>
        <mxCell id="gjoIWEntqids-umup4c_-49" value="Draw a shape" style="ellipse;whiteSpace=wrap;html=1;" parent="1" vertex="1">
          <mxGeometry x="634" y="330" width="140" height="70" as="geometry" />
        </mxCell>
        <mxCell id="gjoIWEntqids-umup4c_-50" value="&amp;lt;&amp;lt;include&amp;gt;&amp;gt;" style="html=1;verticalAlign=bottom;labelBackgroundColor=none;endArrow=open;endFill=0;dashed=1;rounded=0;" parent="1" source="gjoIWEntqids-umup4c_-35" target="gjoIWEntqids-umup4c_-49" edge="1">
          <mxGeometry width="160" relative="1" as="geometry">
            <mxPoint x="434" y="360" as="sourcePoint" />
            <mxPoint x="594" y="360" as="targetPoint" />
          </mxGeometry>
        </mxCell>
        <mxCell id="gjoIWEntqids-umup4c_-51" value="&amp;lt;&amp;lt;include&amp;gt;&amp;gt;" style="html=1;verticalAlign=bottom;labelBackgroundColor=none;endArrow=open;endFill=0;dashed=1;rounded=0;" parent="1" source="gjoIWEntqids-umup4c_-12" target="gjoIWEntqids-umup4c_-49" edge="1">
          <mxGeometry width="160" relative="1" as="geometry">
            <mxPoint x="410" y="337" as="sourcePoint" />
            <mxPoint x="658" y="383" as="targetPoint" />
          </mxGeometry>
        </mxCell>
        <mxCell id="gjoIWEntqids-umup4c_-52" value="&amp;lt;&amp;lt;include&amp;gt;&amp;gt;" style="html=1;verticalAlign=bottom;labelBackgroundColor=none;endArrow=open;endFill=0;dashed=1;rounded=0;" parent="1" source="gjoIWEntqids-umup4c_-16" target="gjoIWEntqids-umup4c_-49" edge="1">
          <mxGeometry width="160" relative="1" as="geometry">
            <mxPoint x="413" y="428" as="sourcePoint" />
            <mxPoint x="656" y="402" as="targetPoint" />
            <Array as="points">
              <mxPoint x="634" y="620" />
            </Array>
          </mxGeometry>
        </mxCell>
        <mxCell id="gjoIWEntqids-umup4c_-53" value="&amp;lt;&amp;lt;include&amp;gt;&amp;gt;" style="html=1;verticalAlign=bottom;labelBackgroundColor=none;endArrow=open;endFill=0;dashed=1;rounded=0;" parent="1" source="gjoIWEntqids-umup4c_-17" target="gjoIWEntqids-umup4c_-49" edge="1">
          <mxGeometry width="160" relative="1" as="geometry">
            <mxPoint x="413" y="428" as="sourcePoint" />
            <mxPoint x="656" y="402" as="targetPoint" />
            <Array as="points">
              <mxPoint x="664" y="650" />
            </Array>
          </mxGeometry>
        </mxCell>
        <mxCell id="AcUa_AKjGAC0bcapaDOY-1" value="&amp;lt;&amp;lt;extend&amp;gt;&amp;gt;" style="html=1;verticalAlign=bottom;labelBackgroundColor=none;endArrow=open;endFill=0;dashed=1;rounded=0;" parent="1" source="gjoIWEntqids-umup4c_-39" target="gjoIWEntqids-umup4c_-35" edge="1">
          <mxGeometry width="160" relative="1" as="geometry">
            <mxPoint x="328" y="359" as="sourcePoint" />
            <mxPoint x="300" y="421" as="targetPoint" />
          </mxGeometry>
        </mxCell>
        <mxCell id="AcUa_AKjGAC0bcapaDOY-2" value="&amp;lt;&amp;lt;extend&amp;gt;&amp;gt;" style="html=1;verticalAlign=bottom;labelBackgroundColor=none;endArrow=open;endFill=0;dashed=1;rounded=0;" parent="1" source="gjoIWEntqids-umup4c_-38" target="gjoIWEntqids-umup4c_-35" edge="1">
          <mxGeometry width="160" relative="1" as="geometry">
            <mxPoint x="571" y="228" as="sourcePoint" />
            <mxPoint x="397" y="302" as="targetPoint" />
          </mxGeometry>
        </mxCell>
        <mxCell id="AcUa_AKjGAC0bcapaDOY-3" value="&amp;lt;&amp;lt;extend&amp;gt;&amp;gt;" style="html=1;verticalAlign=bottom;labelBackgroundColor=none;endArrow=open;endFill=0;dashed=1;rounded=0;" parent="1" source="gjoIWEntqids-umup4c_-37" target="gjoIWEntqids-umup4c_-35" edge="1">
          <mxGeometry x="-0.3794" y="13" width="160" relative="1" as="geometry">
            <mxPoint x="565" y="302" as="sourcePoint" />
            <mxPoint x="413" y="318" as="targetPoint" />
            <mxPoint as="offset" />
          </mxGeometry>
        </mxCell>
        <mxCell id="AcUa_AKjGAC0bcapaDOY-4" value="&amp;lt;&amp;lt;include&amp;gt;&amp;gt;" style="html=1;verticalAlign=bottom;labelBackgroundColor=none;endArrow=open;endFill=0;dashed=1;rounded=0;" parent="1" source="gjoIWEntqids-umup4c_-19" target="gjoIWEntqids-umup4c_-35" edge="1">
          <mxGeometry width="160" relative="1" as="geometry">
            <mxPoint x="410" y="337" as="sourcePoint" />
            <mxPoint x="658" y="383" as="targetPoint" />
          </mxGeometry>
        </mxCell>
        <mxCell id="AcUa_AKjGAC0bcapaDOY-5" value="&amp;lt;&amp;lt;include&amp;gt;&amp;gt;" style="html=1;verticalAlign=bottom;labelBackgroundColor=none;endArrow=open;endFill=0;dashed=1;rounded=0;" parent="1" source="gjoIWEntqids-umup4c_-19" target="gjoIWEntqids-umup4c_-12" edge="1">
          <mxGeometry width="160" relative="1" as="geometry">
            <mxPoint x="300" y="421" as="sourcePoint" />
            <mxPoint x="328" y="359" as="targetPoint" />
          </mxGeometry>
        </mxCell>
        <mxCell id="AcUa_AKjGAC0bcapaDOY-6" value="&amp;lt;&amp;lt;extend&amp;gt;&amp;gt;" style="html=1;verticalAlign=bottom;labelBackgroundColor=none;endArrow=open;endFill=0;dashed=1;rounded=0;" parent="1" source="gjoIWEntqids-umup4c_-13" target="gjoIWEntqids-umup4c_-12" edge="1">
          <mxGeometry width="160" relative="1" as="geometry">
            <mxPoint x="571" y="228" as="sourcePoint" />
            <mxPoint x="397" y="302" as="targetPoint" />
          </mxGeometry>
        </mxCell>
        <mxCell id="AcUa_AKjGAC0bcapaDOY-7" value="Create a symetric difference (xor)" style="ellipse;whiteSpace=wrap;html=1;" parent="1" vertex="1">
          <mxGeometry x="574" y="240" width="140" height="70" as="geometry" />
        </mxCell>
        <mxCell id="AcUa_AKjGAC0bcapaDOY-8" value="&amp;lt;&amp;lt;extend&amp;gt;&amp;gt;" style="html=1;verticalAlign=bottom;labelBackgroundColor=none;endArrow=open;endFill=0;dashed=1;rounded=0;" parent="1" source="AcUa_AKjGAC0bcapaDOY-7" target="gjoIWEntqids-umup4c_-35" edge="1">
          <mxGeometry width="160" relative="1" as="geometry">
            <mxPoint x="657" y="275" as="sourcePoint" />
            <mxPoint x="411" y="314" as="targetPoint" />
          </mxGeometry>
        </mxCell>
        <mxCell id="AcUa_AKjGAC0bcapaDOY-9" value="Create an oval" style="ellipse;whiteSpace=wrap;html=1;" parent="1" vertex="1">
          <mxGeometry x="454" y="540" width="140" height="70" as="geometry" />
        </mxCell>
        <mxCell id="AcUa_AKjGAC0bcapaDOY-10" value="&amp;lt;&amp;lt;extend&amp;gt;&amp;gt;" style="html=1;verticalAlign=bottom;labelBackgroundColor=none;endArrow=open;endFill=0;dashed=1;rounded=0;" parent="1" source="AcUa_AKjGAC0bcapaDOY-9" target="gjoIWEntqids-umup4c_-12" edge="1">
          <mxGeometry width="160" relative="1" as="geometry">
            <mxPoint x="495" y="506" as="sourcePoint" />
            <mxPoint x="373" y="518" as="targetPoint" />
          </mxGeometry>
        </mxCell>
        <mxCell id="AcUa_AKjGAC0bcapaDOY-11" value="Create a triangle" style="ellipse;whiteSpace=wrap;html=1;" parent="1" vertex="1">
          <mxGeometry x="344" y="590" width="140" height="70" as="geometry" />
        </mxCell>
        <mxCell id="AcUa_AKjGAC0bcapaDOY-12" value="&amp;lt;&amp;lt;extend&amp;gt;&amp;gt;" style="html=1;verticalAlign=bottom;labelBackgroundColor=none;endArrow=open;endFill=0;dashed=1;rounded=0;" parent="1" source="AcUa_AKjGAC0bcapaDOY-11" target="gjoIWEntqids-umup4c_-12" edge="1">
          <mxGeometry width="160" relative="1" as="geometry">
            <mxPoint x="495" y="506" as="sourcePoint" />
            <mxPoint x="373" y="518" as="targetPoint" />
          </mxGeometry>
        </mxCell>
        <mxCell id="AcUa_AKjGAC0bcapaDOY-14" value="Change background" style="ellipse;whiteSpace=wrap;html=1;" parent="1" vertex="1">
          <mxGeometry x="184" y="1030" width="140" height="70" as="geometry" />
        </mxCell>
        <mxCell id="AcUa_AKjGAC0bcapaDOY-15" value="Set a background colour" style="ellipse;whiteSpace=wrap;html=1;" parent="1" vertex="1">
          <mxGeometry x="418" y="930" width="140" height="70" as="geometry" />
        </mxCell>
        <mxCell id="AcUa_AKjGAC0bcapaDOY-16" value="Set a background image" style="ellipse;whiteSpace=wrap;html=1;" parent="1" vertex="1">
          <mxGeometry x="384" y="1010" width="140" height="70" as="geometry" />
        </mxCell>
        <mxCell id="AcUa_AKjGAC0bcapaDOY-17" value="&amp;lt;&amp;lt;extend&amp;gt;&amp;gt;" style="html=1;verticalAlign=bottom;labelBackgroundColor=none;endArrow=open;endFill=0;dashed=1;rounded=0;" parent="1" source="AcUa_AKjGAC0bcapaDOY-15" target="AcUa_AKjGAC0bcapaDOY-14" edge="1">
          <mxGeometry x="-0.0082" width="160" relative="1" as="geometry">
            <mxPoint x="637" y="216" as="sourcePoint" />
            <mxPoint x="341" y="264" as="targetPoint" />
            <mxPoint as="offset" />
          </mxGeometry>
        </mxCell>
        <mxCell id="AcUa_AKjGAC0bcapaDOY-18" value="&amp;lt;&amp;lt;extend&amp;gt;&amp;gt;" style="html=1;verticalAlign=bottom;labelBackgroundColor=none;endArrow=open;endFill=0;dashed=1;rounded=0;" parent="1" source="AcUa_AKjGAC0bcapaDOY-16" target="AcUa_AKjGAC0bcapaDOY-14" edge="1">
          <mxGeometry width="160" relative="1" as="geometry">
            <mxPoint x="415" y="900" as="sourcePoint" />
            <mxPoint x="313" y="850" as="targetPoint" />
          </mxGeometry>
        </mxCell>
        <mxCell id="AcUa_AKjGAC0bcapaDOY-19" value="" style="endArrow=none;startArrow=none;endFill=0;startFill=0;endSize=8;html=1;verticalAlign=bottom;labelBackgroundColor=none;strokeWidth=3;rounded=0;" parent="1" source="gjoIWEntqids-umup4c_-20" target="AcUa_AKjGAC0bcapaDOY-14" edge="1">
          <mxGeometry width="160" relative="1" as="geometry">
            <mxPoint x="124" y="570" as="sourcePoint" />
            <mxPoint x="435" y="786" as="targetPoint" />
          </mxGeometry>
        </mxCell>
        <mxCell id="AcUa_AKjGAC0bcapaDOY-20" value="Save a file locally" style="ellipse;whiteSpace=wrap;html=1;" parent="1" vertex="1">
          <mxGeometry x="564" y="910" width="140" height="70" as="geometry" />
        </mxCell>
        <mxCell id="AcUa_AKjGAC0bcapaDOY-21" value="Save a file on a distant server" style="ellipse;whiteSpace=wrap;html=1;" parent="1" vertex="1">
          <mxGeometry x="634" y="1080" width="140" height="70" as="geometry" />
        </mxCell>
        <mxCell id="AcUa_AKjGAC0bcapaDOY-22" value="Save a file as image" style="ellipse;whiteSpace=wrap;html=1;" parent="1" vertex="1">
          <mxGeometry x="634" y="990" width="140" height="70" as="geometry" />
        </mxCell>
        <mxCell id="AcUa_AKjGAC0bcapaDOY-23" value="&amp;lt;&amp;lt;extend&amp;gt;&amp;gt;" style="html=1;verticalAlign=bottom;labelBackgroundColor=none;endArrow=open;endFill=0;dashed=1;rounded=0;" parent="1" source="AcUa_AKjGAC0bcapaDOY-20" target="gjoIWEntqids-umup4c_-18" edge="1">
          <mxGeometry x="-0.0082" width="160" relative="1" as="geometry">
            <mxPoint x="415" y="900" as="sourcePoint" />
            <mxPoint x="313" y="850" as="targetPoint" />
            <mxPoint as="offset" />
          </mxGeometry>
        </mxCell>
        <mxCell id="AcUa_AKjGAC0bcapaDOY-24" value="&amp;lt;&amp;lt;extend&amp;gt;&amp;gt;" style="html=1;verticalAlign=bottom;labelBackgroundColor=none;endArrow=open;endFill=0;dashed=1;rounded=0;" parent="1" source="AcUa_AKjGAC0bcapaDOY-22" target="gjoIWEntqids-umup4c_-18" edge="1">
          <mxGeometry x="-0.0082" width="160" relative="1" as="geometry">
            <mxPoint x="345" y="1050" as="sourcePoint" />
            <mxPoint x="303" y="1070" as="targetPoint" />
            <mxPoint as="offset" />
          </mxGeometry>
        </mxCell>
        <mxCell id="AcUa_AKjGAC0bcapaDOY-25" value="&amp;lt;&amp;lt;extend&amp;gt;&amp;gt;" style="html=1;verticalAlign=bottom;labelBackgroundColor=none;endArrow=open;endFill=0;dashed=1;rounded=0;" parent="1" source="AcUa_AKjGAC0bcapaDOY-21" target="gjoIWEntqids-umup4c_-18" edge="1">
          <mxGeometry x="-0.0082" width="160" relative="1" as="geometry">
            <mxPoint x="465" y="1072" as="sourcePoint" />
            <mxPoint x="322" y="1088" as="targetPoint" />
            <mxPoint as="offset" />
          </mxGeometry>
        </mxCell>
        <mxCell id="AcUa_AKjGAC0bcapaDOY-27" value="Delete a shape" style="ellipse;whiteSpace=wrap;html=1;" parent="1" vertex="1">
          <mxGeometry x="224" y="830" width="140" height="70" as="geometry" />
        </mxCell>
        <mxCell id="AcUa_AKjGAC0bcapaDOY-28" value="" style="endArrow=none;startArrow=none;endFill=0;startFill=0;endSize=8;html=1;verticalAlign=bottom;labelBackgroundColor=none;strokeWidth=3;rounded=0;" parent="1" source="gjoIWEntqids-umup4c_-20" target="AcUa_AKjGAC0bcapaDOY-27" edge="1">
          <mxGeometry width="160" relative="1" as="geometry">
            <mxPoint x="60" y="530" as="sourcePoint" />
            <mxPoint x="232" y="1011" as="targetPoint" />
            <Array as="points">
              <mxPoint x="174" y="770" />
            </Array>
          </mxGeometry>
        </mxCell>
        <mxCell id="AcUa_AKjGAC0bcapaDOY-29" value="&amp;lt;&amp;lt;include&amp;gt;&amp;gt;" style="html=1;verticalAlign=bottom;labelBackgroundColor=none;endArrow=open;endFill=0;dashed=1;rounded=0;" parent="1" source="AcUa_AKjGAC0bcapaDOY-27" target="gjoIWEntqids-umup4c_-49" edge="1">
          <mxGeometry x="-0.0003" width="160" relative="1" as="geometry">
            <mxPoint x="512" y="786" as="sourcePoint" />
            <mxPoint x="709" y="410" as="targetPoint" />
            <Array as="points">
              <mxPoint x="594" y="880" />
              <mxPoint x="714" y="650" />
            </Array>
            <mxPoint as="offset" />
          </mxGeometry>
        </mxCell>
        <mxCell id="AcUa_AKjGAC0bcapaDOY-30" value="Show help window" style="ellipse;whiteSpace=wrap;html=1;" parent="1" vertex="1">
          <mxGeometry x="174" y="60" width="140" height="70" as="geometry" />
        </mxCell>
        <mxCell id="AcUa_AKjGAC0bcapaDOY-31" value="" style="endArrow=none;startArrow=none;endFill=0;startFill=0;endSize=8;html=1;verticalAlign=bottom;labelBackgroundColor=none;strokeWidth=3;rounded=0;" parent="1" source="gjoIWEntqids-umup4c_-20" target="AcUa_AKjGAC0bcapaDOY-30" edge="1">
          <mxGeometry width="160" relative="1" as="geometry">
            <mxPoint x="64" y="485" as="sourcePoint" />
            <mxPoint x="243" y="306" as="targetPoint" />
            <Array as="points">
              <mxPoint x="104" y="270" />
            </Array>
          </mxGeometry>
        </mxCell>
        <mxCell id="AcUa_AKjGAC0bcapaDOY-32" value="Adjust a shape depth" style="ellipse;whiteSpace=wrap;html=1;" parent="1" vertex="1">
          <mxGeometry x="224" y="740" width="140" height="70" as="geometry" />
        </mxCell>
        <mxCell id="AcUa_AKjGAC0bcapaDOY-33" value="&amp;lt;&amp;lt;include&amp;gt;&amp;gt;" style="html=1;verticalAlign=bottom;labelBackgroundColor=none;endArrow=open;endFill=0;dashed=1;rounded=0;" parent="1" source="AcUa_AKjGAC0bcapaDOY-32" target="gjoIWEntqids-umup4c_-49" edge="1">
          <mxGeometry width="160" relative="1" as="geometry">
            <mxPoint x="344" y="886" as="sourcePoint" />
            <mxPoint x="715" y="410" as="targetPoint" />
            <Array as="points">
              <mxPoint x="444" y="860" />
              <mxPoint x="584" y="830" />
              <mxPoint x="684" y="670" />
            </Array>
          </mxGeometry>
        </mxCell>
        <mxCell id="AcUa_AKjGAC0bcapaDOY-34" value="" style="endArrow=none;startArrow=none;endFill=0;startFill=0;endSize=8;html=1;verticalAlign=bottom;labelBackgroundColor=none;strokeWidth=3;rounded=0;" parent="1" source="gjoIWEntqids-umup4c_-20" target="AcUa_AKjGAC0bcapaDOY-32" edge="1">
          <mxGeometry width="160" relative="1" as="geometry">
            <mxPoint x="64" y="526" as="sourcePoint" />
            <mxPoint x="254" y="851" as="targetPoint" />
          </mxGeometry>
        </mxCell>
        <mxCell id="AcUa_AKjGAC0bcapaDOY-35" value="Duplicate a shape" style="ellipse;whiteSpace=wrap;html=1;" parent="1" vertex="1">
          <mxGeometry x="174" y="350" width="140" height="70" as="geometry" />
        </mxCell>
        <mxCell id="AcUa_AKjGAC0bcapaDOY-36" value="&amp;lt;&amp;lt;include&amp;gt;&amp;gt;" style="html=1;verticalAlign=bottom;labelBackgroundColor=none;endArrow=open;endFill=0;dashed=1;rounded=0;" parent="1" source="AcUa_AKjGAC0bcapaDOY-35" target="gjoIWEntqids-umup4c_-35" edge="1">
          <mxGeometry width="160" relative="1" as="geometry">
            <mxPoint x="377" y="398" as="sourcePoint" />
            <mxPoint x="301" y="307" as="targetPoint" />
          </mxGeometry>
        </mxCell>
        <mxCell id="AcUa_AKjGAC0bcapaDOY-37" value="&amp;lt;&amp;lt;include&amp;gt;&amp;gt;" style="html=1;verticalAlign=bottom;labelBackgroundColor=none;endArrow=open;endFill=0;dashed=1;rounded=0;" parent="1" source="AcUa_AKjGAC0bcapaDOY-35" target="gjoIWEntqids-umup4c_-12" edge="1">
          <mxGeometry x="-0.4482" y="-10" width="160" relative="1" as="geometry">
            <mxPoint x="260" y="360" as="sourcePoint" />
            <mxPoint x="268" y="310" as="targetPoint" />
            <mxPoint as="offset" />
          </mxGeometry>
        </mxCell>
        <mxCell id="AcUa_AKjGAC0bcapaDOY-38" value="" style="endArrow=none;startArrow=none;endFill=0;startFill=0;endSize=8;html=1;verticalAlign=bottom;labelBackgroundColor=none;strokeWidth=3;rounded=0;" parent="1" source="gjoIWEntqids-umup4c_-20" target="AcUa_AKjGAC0bcapaDOY-35" edge="1">
          <mxGeometry width="160" relative="1" as="geometry">
            <mxPoint x="64" y="497" as="sourcePoint" />
            <mxPoint x="339" y="443" as="targetPoint" />
          </mxGeometry>
        </mxCell>
        <mxCell id="AcUa_AKjGAC0bcapaDOY-39" value="Create a new canvas" style="ellipse;whiteSpace=wrap;html=1;" parent="1" vertex="1">
          <mxGeometry x="274" y="920" width="140" height="70" as="geometry" />
        </mxCell>
        <mxCell id="AcUa_AKjGAC0bcapaDOY-40" value="&amp;lt;&amp;lt;include&amp;gt;&amp;gt;" style="html=1;verticalAlign=bottom;labelBackgroundColor=none;endArrow=open;endFill=0;dashed=1;rounded=0;" parent="1" source="AcUa_AKjGAC0bcapaDOY-39" target="AcUa_AKjGAC0bcapaDOY-27" edge="1">
          <mxGeometry x="-1" y="-40" width="160" relative="1" as="geometry">
            <mxPoint x="267" y="429" as="sourcePoint" />
            <mxPoint x="291" y="491" as="targetPoint" />
            <mxPoint x="4" y="8" as="offset" />
          </mxGeometry>
        </mxCell>
        <mxCell id="AcUa_AKjGAC0bcapaDOY-41" value="&amp;lt;&amp;lt;include&amp;gt;&amp;gt;" style="html=1;verticalAlign=bottom;labelBackgroundColor=none;endArrow=open;endFill=0;dashed=1;rounded=0;" parent="1" source="AcUa_AKjGAC0bcapaDOY-39" target="AcUa_AKjGAC0bcapaDOY-14" edge="1">
          <mxGeometry x="0.4938" y="-33" width="160" relative="1" as="geometry">
            <mxPoint x="311" y="940" as="sourcePoint" />
            <mxPoint x="307" y="910" as="targetPoint" />
            <mxPoint y="-1" as="offset" />
          </mxGeometry>
        </mxCell>
        <mxCell id="AcUa_AKjGAC0bcapaDOY-42" value="" style="endArrow=none;startArrow=none;endFill=0;startFill=0;endSize=8;html=1;verticalAlign=bottom;labelBackgroundColor=none;strokeWidth=3;rounded=0;" parent="1" source="gjoIWEntqids-umup4c_-20" target="AcUa_AKjGAC0bcapaDOY-39" edge="1">
          <mxGeometry width="160" relative="1" as="geometry">
            <mxPoint x="60" y="530" as="sourcePoint" />
            <mxPoint x="251" y="1041" as="targetPoint" />
            <Array as="points">
              <mxPoint x="204" y="880" />
            </Array>
          </mxGeometry>
        </mxCell>
        <mxCell id="AcUa_AKjGAC0bcapaDOY-43" value="Create a new window" style="ellipse;whiteSpace=wrap;html=1;" parent="1" vertex="1">
          <mxGeometry x="204" y="140" width="140" height="70" as="geometry" />
        </mxCell>
        <mxCell id="AcUa_AKjGAC0bcapaDOY-44" value="" style="endArrow=none;startArrow=none;endFill=0;startFill=0;endSize=8;html=1;verticalAlign=bottom;labelBackgroundColor=none;strokeWidth=3;rounded=0;" parent="1" source="gjoIWEntqids-umup4c_-20" target="AcUa_AKjGAC0bcapaDOY-43" edge="1">
          <mxGeometry width="160" relative="1" as="geometry">
            <mxPoint x="64" y="471" as="sourcePoint" />
            <mxPoint x="236" y="139" as="targetPoint" />
            <Array as="points">
              <mxPoint x="144" y="270" />
            </Array>
          </mxGeometry>
        </mxCell>
        <mxCell id="aerLPucRoCSnXXk8GGzH-1" value="&lt;span style=&quot;font-size:11.0pt;line-height:107%;&lt;br/&gt;font-family:&amp;quot;Aptos&amp;quot;,sans-serif;mso-ascii-theme-font:minor-latin;mso-fareast-font-family:&lt;br/&gt;Aptos;mso-fareast-theme-font:minor-latin;mso-hansi-theme-font:minor-latin;&lt;br/&gt;mso-bidi-font-family:&amp;quot;Times New Roman&amp;quot;;mso-bidi-theme-font:minor-bidi;&lt;br/&gt;mso-ansi-language:FR;mso-fareast-language:EN-US;mso-bidi-language:AR-SA&quot;&gt;1.1 – Diagramme des cas d’utilisation&amp;nbsp;(version cours)&amp;nbsp;&lt;/span&gt;" style="text;html=1;align=center;verticalAlign=middle;resizable=0;points=[];autosize=1;strokeColor=none;fillColor=none;" parent="1" vertex="1">
          <mxGeometry x="14" y="10" width="370" height="30" as="geometry" />
        </mxCell>
      </root>
    </mxGraphModel>
  </diagram>
</mxfile>
